# Blender 5.1.1
# www.blender.org
mtllib Nail.mtl
o Cone
v 0.000000 0.447214 0.447214
v -0.087247 0.447214 0.438621
v -0.171141 0.447214 0.413172
v -0.248459 0.447214 0.371845
v -0.316228 0.447214 0.316228
v -0.371845 0.447214 0.248459
v -0.413172 0.447214 0.171141
v -0.438621 0.447214 0.087247
v -0.447214 0.447214 0.000000
v -0.438621 0.447214 -0.087247
v -0.413172 0.447214 -0.171141
v -0.371845 0.447214 -0.248459
v -0.316228 0.447214 -0.316228
v -0.248459 0.447214 -0.371845
v -0.171141 0.447214 -0.413172
v -0.087247 0.447214 -0.438621
v 0.000000 0.447214 -0.447214
v 0.087247 0.447214 -0.438621
v 0.171141 0.447214 -0.413172
v 0.248459 0.447214 -0.371845
v 0.316228 0.447214 -0.316228
v 0.371845 0.447214 -0.248459
v 0.413172 0.447214 -0.171141
v 0.438621 0.447214 -0.087247
v 0.447214 0.447214 0.000000
v 0.438621 0.447214 0.087247
v 0.413172 0.447214 0.171141
v 0.371845 0.447214 0.248459
v 0.316228 0.447214 0.316228
v 0.248459 0.447214 0.371845
v 0.171141 0.447214 0.413172
v 0.087247 0.447214 0.438621
v 0.000000 3.002285 0.447214
v -0.087247 3.002285 0.438621
v -0.171141 3.002285 0.413172
v -0.248459 3.002285 0.371845
v -0.316228 3.002285 0.316228
v -0.371845 3.002285 0.248459
v -0.413171 3.002285 0.171141
v -0.438621 3.002285 0.087247
v -0.447214 3.002285 0.000000
v -0.438621 3.002285 -0.087247
v -0.413171 3.002285 -0.171141
v -0.371845 3.002285 -0.248459
v -0.316228 3.002285 -0.316228
v -0.248459 3.002285 -0.371845
v -0.171141 3.002285 -0.413172
v -0.087247 3.002285 -0.438621
v 0.000000 3.002285 -0.447214
v 0.087247 3.002285 -0.438621
v 0.171141 3.002285 -0.413172
v 0.248459 3.002285 -0.371845
v 0.316228 3.002285 -0.316228
v 0.371845 3.002285 -0.248459
v 0.413172 3.002285 -0.171141
v 0.438621 3.002285 -0.087247
v 0.447214 3.002285 0.000000
v 0.438621 3.002285 0.087247
v 0.413172 3.002285 0.171141
v 0.371845 3.002285 0.248459
v 0.316228 3.002285 0.316228
v 0.248459 3.002285 0.371845
v 0.171141 3.002285 0.413172
v 0.087247 3.002285 0.438621
v 0.000000 3.021973 1.162843
v -0.226859 3.021973 1.140499
v -0.445001 3.021973 1.074327
v -0.646041 3.021973 0.966868
v -0.822254 3.021973 0.822254
v -0.966868 3.021973 0.646041
v -1.074327 3.021973 0.445001
v -1.140499 3.021973 0.226859
v -1.162843 3.021973 0.000000
v -1.140499 3.021973 -0.226859
v -1.074327 3.021973 -0.445001
v -0.966868 3.021973 -0.646041
v -0.822254 3.021973 -0.822254
v -0.646041 3.021973 -0.966868
v -0.445001 3.021973 -1.074327
v -0.226859 3.021973 -1.140499
v 0.000000 3.021973 -1.162843
v 0.226859 3.021973 -1.140499
v 0.445001 3.021973 -1.074327
v 0.646041 3.021973 -0.966868
v 0.822254 3.021973 -0.822254
v 0.966869 3.021973 -0.646041
v 1.074327 3.021973 -0.445001
v 1.140499 3.021973 -0.226859
v 1.162843 3.021973 0.000000
v 1.140499 3.021973 0.226859
v 1.074327 3.021973 0.445001
v 0.966869 3.021973 0.646041
v 0.822254 3.021973 0.822254
v 0.646041 3.021973 0.966868
v 0.445001 3.021973 1.074327
v 0.226859 3.021973 1.140499
v 0.000000 3.120915 1.162843
v -0.226859 3.120915 1.140499
v -0.445001 3.120915 1.074327
v -0.646041 3.120915 0.966868
v -0.822254 3.120915 0.822254
v -0.966868 3.120915 0.646041
v -1.074327 3.120915 0.445001
v -1.140499 3.120915 0.226859
v -1.162843 3.120915 0.000000
v -1.140499 3.120915 -0.226859
v -1.074327 3.120915 -0.445001
v -0.966868 3.120915 -0.646041
v -0.822254 3.120915 -0.822254
v -0.646041 3.120915 -0.966868
v -0.445001 3.120915 -1.074327
v -0.226859 3.120915 -1.140499
v 0.000000 3.120915 -1.162843
v 0.226859 3.120915 -1.140499
v 0.445001 3.120915 -1.074327
v 0.646041 3.120915 -0.966868
v 0.822254 3.120915 -0.822254
v 0.966869 3.120915 -0.646041
v 1.074327 3.120915 -0.445001
v 1.140499 3.120915 -0.226859
v 1.162843 3.120915 0.000000
v 1.140499 3.120915 0.226859
v 1.074327 3.120915 0.445001
v 0.966869 3.120915 0.646041
v 0.822254 3.120915 0.822254
v 0.646041 3.120915 0.966868
v 0.445001 3.120915 1.074327
v 0.226859 3.120915 1.140499
v -0.000000 -1.810351 0.447214
v -0.087247 -1.810351 0.438621
v -0.000000 -2.704779 0.000000
v -0.171141 -1.810351 0.413172
v -0.248459 -1.810351 0.371845
v -0.316228 -1.810351 0.316228
v -0.371845 -1.810351 0.248459
v -0.413172 -1.810351 0.171141
v -0.438621 -1.810351 0.087247
v -0.447214 -1.810351 0.000000
v -0.438621 -1.810351 -0.087247
v -0.413172 -1.810351 -0.171141
v -0.371845 -1.810351 -0.248459
v -0.316228 -1.810351 -0.316228
v -0.248459 -1.810351 -0.371845
v -0.171141 -1.810351 -0.413171
v -0.087247 -1.810351 -0.438621
v -0.000000 -1.810351 -0.447214
v 0.087247 -1.810351 -0.438621
v 0.171141 -1.810351 -0.413171
v 0.248458 -1.810351 -0.371845
v 0.316228 -1.810351 -0.316228
v 0.371844 -1.810351 -0.248459
v 0.413171 -1.810351 -0.171141
v 0.438620 -1.810351 -0.087247
v 0.447214 -1.810351 0.000000
v 0.438620 -1.810351 0.087247
v 0.413171 -1.810351 0.171141
v 0.371844 -1.810351 0.248459
v 0.316228 -1.810351 0.316228
v 0.248458 -1.810351 0.371845
v 0.171141 -1.810351 0.413172
v 0.087247 -1.810351 0.438621
vn 0.4714 -0.0000 -0.8819
vn -0.7730 -0.0000 -0.6344
vn 0.0980 -0.0000 0.9952
vn -0.7730 -0.0000 0.6344
vn 0.9952 -0.0000 0.0980
vn 0.2903 -0.0000 -0.9569
vn -0.8819 -0.0000 -0.4714
vn 0.2903 -0.0000 0.9569
vn -0.6344 -0.0000 0.7730
vn 0.9952 -0.0000 -0.0980
vn 0.0980 -0.0000 -0.9952
vn -0.9569 -0.0000 -0.2903
vn 0.4714 -0.0000 0.8819
vn -0.4714 -0.0000 0.8819
vn 0.9569 -0.0000 -0.2903
vn -0.0980 -0.0000 -0.9952
vn -0.9952 -0.0000 -0.0980
vn 0.6344 -0.0000 0.7730
vn -0.2903 -0.0000 0.9569
vn 0.8819 -0.0000 -0.4714
vn -0.2903 -0.0000 -0.9569
vn -0.9952 -0.0000 0.0980
vn 0.7730 -0.0000 0.6344
vn 0.7730 -0.0000 -0.6344
vn -0.4714 -0.0000 -0.8819
vn -0.0980 -0.0000 0.9952
vn -0.9569 -0.0000 0.2903
vn 0.8819 -0.0000 0.4714
vn 0.6344 -0.0000 -0.7730
vn -0.6344 -0.0000 -0.7730
vn -0.8819 -0.0000 0.4714
vn 0.9569 -0.0000 0.2903
vn -0.0027 -0.9996 0.0275
vn 0.0214 -0.9996 0.0175
vn -0.0080 -0.9996 -0.0264
vn -0.0080 -0.9996 0.0264
vn 0.0175 -0.9996 0.0214
vn -0.0027 -0.9996 -0.0275
vn -0.0130 -0.9996 0.0244
vn 0.0130 -0.9996 0.0244
vn 0.0027 -0.9996 -0.0275
vn -0.0175 -0.9996 0.0214
vn 0.0080 -0.9996 0.0264
vn 0.0080 -0.9996 -0.0264
vn -0.0214 -0.9996 0.0175
vn 0.0027 -0.9996 0.0275
vn 0.0130 -0.9996 -0.0244
vn -0.0244 -0.9996 0.0130
vn 0.0175 -0.9996 -0.0214
vn -0.0264 -0.9996 0.0080
vn 0.0214 -0.9996 -0.0175
vn -0.0275 -0.9996 0.0027
vn 0.0244 -0.9996 -0.0130
vn -0.0275 -0.9996 -0.0027
vn 0.0264 -0.9996 -0.0080
vn -0.0264 -0.9996 -0.0080
vn 0.0275 -0.9996 -0.0027
vn -0.0244 -0.9996 -0.0130
vn 0.0275 -0.9996 0.0027
vn -0.0214 -0.9996 -0.0175
vn 0.0264 -0.9996 0.0080
vn -0.0175 -0.9996 -0.0214
vn 0.0244 -0.9996 0.0130
vn -0.0130 -0.9996 -0.0244
vn -0.0000 1.0000 -0.0000
vn -0.0878 -0.4455 0.8910
vn -0.2599 -0.4455 0.8567
vn -0.4220 -0.4455 0.7896
vn -0.5680 -0.4455 0.6921
vn -0.6921 -0.4455 0.5680
vn -0.7896 -0.4455 0.4220
vn -0.8567 -0.4455 0.2599
vn -0.8910 -0.4455 0.0878
vn -0.8910 -0.4455 -0.0878
vn -0.8567 -0.4455 -0.2599
vn -0.7896 -0.4455 -0.4220
vn -0.6921 -0.4455 -0.5680
vn -0.5680 -0.4455 -0.6921
vn -0.4220 -0.4455 -0.7896
vn -0.2599 -0.4455 -0.8567
vn -0.0878 -0.4455 -0.8910
vn 0.0878 -0.4455 -0.8910
vn 0.2599 -0.4455 -0.8567
vn 0.4220 -0.4455 -0.7896
vn 0.5680 -0.4455 -0.6921
vn 0.6921 -0.4455 -0.5680
vn 0.7896 -0.4455 -0.4220
vn 0.8567 -0.4455 -0.2599
vn 0.8910 -0.4455 -0.0878
vn 0.8910 -0.4455 0.0878
vn 0.8567 -0.4455 0.2599
vn 0.7896 -0.4455 0.4220
vn 0.6921 -0.4455 0.5680
vn 0.5680 -0.4455 0.6921
vn 0.4220 -0.4455 0.7896
vn 0.2599 -0.4455 0.8567
vn 0.0878 -0.4455 0.8910
vt 0.116663 0.050447
vt 0.158156 0.028269
vt 0.419706 0.080294
vt 0.449553 0.116663
vt 0.250000 0.490000
vt 0.203178 0.485388
vt 0.449553 0.383337
vt 0.419706 0.419706
vt 0.014612 0.296822
vt 0.010000 0.250000
vt 0.203178 0.014612
vt 0.471731 0.158156
vt 0.158156 0.471731
vt 0.383337 0.449553
vt 0.014612 0.203178
vt 0.250000 0.010000
vt 0.485388 0.203178
vt 0.116663 0.449553
vt 0.341844 0.471731
vt 0.028269 0.158156
vt 0.296822 0.014612
vt 0.490000 0.250000
vt 0.080294 0.419706
vt 0.296822 0.485388
vt 0.050447 0.116663
vt 0.341844 0.028269
vt 0.485388 0.296822
vt 0.050447 0.383337
vt 0.080294 0.080294
vt 0.383337 0.050447
vt 0.471731 0.341844
vt 0.028269 0.341844
vt 0.250000 0.250000
s 0
f 20/1/1 149/1/1 148/2/1 19/2/1
f 13/3/2 142/3/2 141/4/2 12/4/2
f 1/5/3 129/5/3 161/6/3 32/6/3
f 6/7/4 135/7/4 134/8/4 5/8/4
f 26/9/5 155/9/5 154/10/5 25/10/5
f 19/2/6 148/2/6 147/11/6 18/11/6
f 12/4/7 141/4/7 140/12/7 11/12/7
f 32/6/8 161/6/8 160/13/8 31/13/8
f 5/8/9 134/8/9 133/14/9 4/14/9
f 25/10/10 154/10/10 153/15/10 24/15/10
f 18/11/11 147/11/11 146/16/11 17/16/11
f 11/12/12 140/12/12 139/17/12 10/17/12
f 31/13/13 160/13/13 159/18/13 30/18/13
f 4/14/14 133/14/14 132/19/14 3/19/14
f 24/15/15 153/15/15 152/20/15 23/20/15
f 17/16/16 146/16/16 145/21/16 16/21/16
f 10/17/17 139/17/17 138/22/17 9/22/17
f 30/18/18 159/18/18 158/23/18 29/23/18
f 3/19/19 132/19/19 130/24/19 2/24/19
f 23/20/20 152/20/20 151/25/20 22/25/20
f 16/21/21 145/21/21 144/26/21 15/26/21
f 9/22/22 138/22/22 137/27/22 8/27/22
f 29/23/23 158/23/23 157/28/23 28/28/23
f 22/25/24 151/25/24 150/29/24 21/29/24
f 15/26/25 144/26/25 143/30/25 14/30/25
f 2/24/26 130/24/26 129/5/26 1/5/26
f 8/27/27 137/27/27 136/31/27 7/31/27
f 28/28/28 157/28/28 156/32/28 27/32/28
f 21/29/29 150/29/29 149/1/29 20/1/29
f 14/30/30 143/30/30 142/3/30 13/3/30
f 25/10/5 57/10/5 58/9/5 26/9/5
f 7/31/31 136/31/31 135/7/31 6/7/31
f 27/32/32 156/32/32 155/9/32 26/9/32
f 5/8/4 37/8/4 38/7/4 6/7/4
f 32/6/3 64/6/3 33/5/3 1/5/3
f 12/4/2 44/4/2 45/3/2 13/3/2
f 19/2/1 51/2/1 52/1/1 20/1/1
f 26/9/32 58/9/32 59/32/32 27/32/32
f 6/7/31 38/7/31 39/31/31 7/31/31
f 13/3/30 45/3/30 46/30/30 14/30/30
f 20/1/29 52/1/29 53/29/29 21/29/29
f 27/32/28 59/32/28 60/28/28 28/28/28
f 7/31/27 39/31/27 40/27/27 8/27/27
f 1/5/26 33/5/26 34/24/26 2/24/26
f 14/30/25 46/30/25 47/26/25 15/26/25
f 21/29/24 53/29/24 54/25/24 22/25/24
f 28/28/23 60/28/23 61/23/23 29/23/23
f 8/27/22 40/27/22 41/22/22 9/22/22
f 15/26/21 47/26/21 48/21/21 16/21/21
f 22/25/20 54/25/20 55/20/20 23/20/20
f 2/24/19 34/24/19 35/19/19 3/19/19
f 29/23/18 61/23/18 62/18/18 30/18/18
f 9/22/17 41/22/17 42/17/17 10/17/17
f 16/21/16 48/21/16 49/16/16 17/16/16
f 23/20/15 55/20/15 56/15/15 24/15/15
f 3/19/14 35/19/14 36/14/14 4/14/14
f 30/18/13 62/18/13 63/13/13 31/13/13
f 10/17/12 42/17/12 43/12/12 11/12/12
f 17/16/11 49/16/11 50/11/11 18/11/11
f 24/15/10 56/15/10 57/10/10 25/10/10
f 4/14/9 36/14/9 37/8/9 5/8/9
f 31/13/8 63/13/8 64/6/8 32/6/8
f 11/12/7 43/12/7 44/4/7 12/4/7
f 18/11/6 50/11/6 51/2/6 19/2/6
f 33/5/33 65/5/33 66/24/33 34/24/33
f 60/28/34 92/28/34 93/23/34 61/23/34
f 47/26/35 79/26/35 80/21/35 48/21/35
f 34/24/36 66/24/36 67/19/36 35/19/36
f 61/23/37 93/23/37 94/18/37 62/18/37
f 48/21/38 80/21/38 81/16/38 49/16/38
f 35/19/39 67/19/39 68/14/39 36/14/39
f 62/18/40 94/18/40 95/13/40 63/13/40
f 49/16/41 81/16/41 82/11/41 50/11/41
f 36/14/42 68/14/42 69/8/42 37/8/42
f 63/13/43 95/13/43 96/6/43 64/6/43
f 50/11/44 82/11/44 83/2/44 51/2/44
f 37/8/45 69/8/45 70/7/45 38/7/45
f 64/6/46 96/6/46 65/5/46 33/5/46
f 51/2/47 83/2/47 84/1/47 52/1/47
f 38/7/48 70/7/48 71/31/48 39/31/48
f 52/1/49 84/1/49 85/29/49 53/29/49
f 39/31/50 71/31/50 72/27/50 40/27/50
f 53/29/51 85/29/51 86/25/51 54/25/51
f 40/27/52 72/27/52 73/22/52 41/22/52
f 54/25/53 86/25/53 87/20/53 55/20/53
f 41/22/54 73/22/54 74/17/54 42/17/54
f 55/20/55 87/20/55 88/15/55 56/15/55
f 42/17/56 74/17/56 75/12/56 43/12/56
f 56/15/57 88/15/57 89/10/57 57/10/57
f 43/12/58 75/12/58 76/4/58 44/4/58
f 57/10/59 89/10/59 90/9/59 58/9/59
f 44/4/60 76/4/60 77/3/60 45/3/60
f 58/9/61 90/9/61 91/32/61 59/32/61
f 45/3/62 77/3/62 78/30/62 46/30/62
f 59/32/63 91/32/63 92/28/63 60/28/63
f 46/30/64 78/30/64 79/26/64 47/26/64
f 76/4/2 108/4/2 109/3/2 77/3/2
f 90/9/32 122/9/32 123/32/32 91/32/32
f 77/3/30 109/3/30 110/30/30 78/30/30
f 91/32/28 123/32/28 124/28/28 92/28/28
f 78/30/25 110/30/25 111/26/25 79/26/25
f 65/5/26 97/5/26 98/24/26 66/24/26
f 92/28/23 124/28/23 125/23/23 93/23/23
f 79/26/21 111/26/21 112/21/21 80/21/21
f 66/24/19 98/24/19 99/19/19 67/19/19
f 93/23/18 125/23/18 126/18/18 94/18/18
f 80/21/16 112/21/16 113/16/16 81/16/16
f 67/19/14 99/19/14 100/14/14 68/14/14
f 94/18/13 126/18/13 127/13/13 95/13/13
f 81/16/11 113/16/11 114/11/11 82/11/11
f 68/14/9 100/14/9 101/8/9 69/8/9
f 95/13/8 127/13/8 128/6/8 96/6/8
f 82/11/6 114/11/6 115/2/6 83/2/6
f 69/8/4 101/8/4 102/7/4 70/7/4
f 96/6/3 128/6/3 97/5/3 65/5/3
f 83/2/1 115/2/1 116/1/1 84/1/1
f 70/7/31 102/7/31 103/31/31 71/31/31
f 84/1/29 116/1/29 117/29/29 85/29/29
f 71/31/27 103/31/27 104/27/27 72/27/27
f 85/29/24 117/29/24 118/25/24 86/25/24
f 72/27/22 104/27/22 105/22/22 73/22/22
f 86/25/20 118/25/20 119/20/20 87/20/20
f 73/22/17 105/22/17 106/17/17 74/17/17
f 87/20/15 119/20/15 120/15/15 88/15/15
f 74/17/12 106/17/12 107/12/12 75/12/12
f 88/15/10 120/15/10 121/10/10 89/10/10
f 75/12/7 107/12/7 108/4/7 76/4/7
f 89/10/5 121/10/5 122/9/5 90/9/5
f 97/5/65 128/6/65 127/13/65 126/18/65 125/23/65 124/28/65 123/32/65 122/9/65 121/10/65 120/15/65 119/20/65 118/25/65 117/29/65 116/1/65 115/2/65 114/11/65 113/16/65 112/21/65 111/26/65 110/30/65 109/3/65 108/4/65 107/12/65 106/17/65 105/22/65 104/27/65 103/31/65 102/7/65 101/8/65 100/14/65 99/19/65 98/24/65
f 129/5/66 130/24/66 131/33/66
f 130/24/67 132/19/67 131/33/67
f 132/19/68 133/14/68 131/33/68
f 133/14/69 134/8/69 131/33/69
f 134/8/70 135/7/70 131/33/70
f 135/7/71 136/31/71 131/33/71
f 136/31/72 137/27/72 131/33/72
f 137/27/73 138/22/73 131/33/73
f 138/22/74 139/17/74 131/33/74
f 139/17/75 140/12/75 131/33/75
f 140/12/76 141/4/76 131/33/76
f 141/4/77 142/3/77 131/33/77
f 142/3/78 143/30/78 131/33/78
f 143/30/79 144/26/79 131/33/79
f 144/26/80 145/21/80 131/33/80
f 145/21/81 146/16/81 131/33/81
f 146/16/82 147/11/82 131/33/82
f 147/11/83 148/2/83 131/33/83
f 148/2/84 149/1/84 131/33/84
f 149/1/85 150/29/85 131/33/85
f 150/29/86 151/25/86 131/33/86
f 151/25/87 152/20/87 131/33/87
f 152/20/88 153/15/88 131/33/88
f 153/15/89 154/10/89 131/33/89
f 154/10/90 155/9/90 131/33/90
f 155/9/91 156/32/91 131/33/91
f 156/32/92 157/28/92 131/33/92
f 157/28/93 158/23/93 131/33/93
f 158/23/94 159/18/94 131/33/94
f 159/18/95 160/13/95 131/33/95
f 160/13/96 161/6/96 131/33/96
f 161/6/97 129/5/97 131/33/97
